<?xml version="1.0" encoding="UTF-8" standalone="no"?>
<!-- Created with Inkscape (http://www.inkscape.org/) -->

<svg
   width="48"
   height="48"
   viewBox="0 0 12.7 12.7"
   version="1.1"
   id="svg5"
   inkscape:version="1.1 (c68e22c387, 2021-05-23)"
   sodipodi:docname="Home Goods.svg"
   xmlns:inkscape="http://www.inkscape.org/namespaces/inkscape"
   xmlns:sodipodi="http://sodipodi.sourceforge.net/DTD/sodipodi-0.dtd"
   xmlns="http://www.w3.org/2000/svg"
   xmlns:svg="http://www.w3.org/2000/svg">
  <sodipodi:namedview
     id="namedview7"
     pagecolor="#505050"
     bordercolor="#ffffff"
     borderopacity="1"
     inkscape:pageshadow="0"
     inkscape:pageopacity="0"
     inkscape:pagecheckerboard="1"
     inkscape:document-units="mm"
     showgrid="false"
     units="px"
     showguides="true"
     inkscape:guide-bbox="true"
     inkscape:zoom="2.828427"
     inkscape:cx="-176.24637"
     inkscape:cy="6.540738"
     inkscape:window-width="1920"
     inkscape:window-height="1057"
     inkscape:window-x="-8"
     inkscape:window-y="-8"
     inkscape:window-maximized="1"
     inkscape:current-layer="g7513">
    <inkscape:grid
       type="xygrid"
       id="grid87" />
    <sodipodi:guide
       position="6.35,1.2236979"
       orientation="1,0"
       id="guide89" />
  </sodipodi:namedview>
  <defs
     id="defs2" />
  <g
     inkscape:label="Layer 1"
     inkscape:groupmode="layer"
     id="layer1">
    <g
       id="g7513"
       transform="translate(-0.54211074,0.09105835)">
      <path
         id="path9867"
         style="fill:none;stroke:#ffffff;stroke-width:0.4;stroke-linecap:butt;stroke-linejoin:miter;stroke-miterlimit:4;stroke-dasharray:none;stroke-opacity:1"
         d="m 6.8921107,0.7685524 c -1.7626293,-2.4e-7 -3.1915226,1.5705459 -3.1915226,3.5079126 0,0.936634 0.3339766,1.7875306 0.8781781,2.4166703 0.581444,0.6721949 0.6275645,1.9273716 1.2843568,2.2952814 0.6567923,0.3679098 1.4011831,0.3679098 2.0579754,0 C 8.5778907,8.6205069 8.6240112,7.3653302 9.2054552,6.6931353 9.7496567,6.0639956 10.083633,5.213099 10.083633,4.276465 c 0,-1.9373667 -1.428893,-3.50791284 -3.1915223,-3.5079126 z"
         sodipodi:nodetypes="ssszzsss" />
      <path
         style="fill:none;stroke:#ffffff;stroke-width:0.4;stroke-linecap:butt;stroke-linejoin:miter;stroke-miterlimit:4;stroke-dasharray:none;stroke-opacity:1"
         d="m 5.7759,8.9461165 c 0,0 -0.4051432,0.214974 -0.4134114,0.5539714 -0.00827,0.3389974 0.2149739,0.5539711 0.2149739,0.5539711 0.042108,-0.04566 -0.2108399,0.214974 -0.2108399,0.446485 0,0.23151 0.2108399,0.42168 0.2108399,0.42168 0,0 -0.1405599,0.181901 -0.107487,0.446484 0.033073,0.264583 0.3638016,0.711068 1.4221352,0.711068"
         id="path12220"
         sodipodi:nodetypes="cscscsc" />
      <path
         style="fill:none;stroke:#ffffff;stroke-width:0.4;stroke-linecap:butt;stroke-linejoin:miter;stroke-miterlimit:4;stroke-dasharray:none;stroke-opacity:1"
         d="m 5.5774625,10.054059 c 0,0 0.5911779,0.28112 1.3146482,0.28112"
         id="path12222"
         sodipodi:nodetypes="cc" />
      <path
         style="fill:none;stroke:#ffffff;stroke-width:0.4;stroke-linecap:butt;stroke-linejoin:miter;stroke-miterlimit:4;stroke-dasharray:none;stroke-opacity:1"
         d="m 5.5774625,10.922224 c 0,0 0.5911779,0.334864 1.3146482,0.334864"
         id="path12313"
         sodipodi:nodetypes="cc" />
      <path
         style="fill:none;stroke:#ffffff;stroke-width:0.4;stroke-linecap:butt;stroke-linejoin:miter;stroke-miterlimit:4;stroke-dasharray:none;stroke-opacity:1"
         d="m 8.0083214,8.9461165 c 0,0 0.4051432,0.214974 0.4134114,0.5539714 0.00827,0.3389974 -0.2149739,0.5539711 -0.2149739,0.5539711 -0.042108,-0.04566 0.2108399,0.214974 0.2108399,0.446485 0,0.23151 -0.2108399,0.42168 -0.2108399,0.42168 0,0 0.1405599,0.181901 0.107487,0.446484 -0.033073,0.264583 -0.3638016,0.711068 -1.4221352,0.711068"
         id="path14965"
         sodipodi:nodetypes="cscscsc" />
      <path
         style="fill:none;stroke:#ffffff;stroke-width:0.4;stroke-linecap:butt;stroke-linejoin:miter;stroke-miterlimit:4;stroke-dasharray:none;stroke-opacity:1"
         d="m 8.2067589,10.054059 c 0,0 -0.5911779,0.28112 -1.3146482,0.28112"
         id="path14967"
         sodipodi:nodetypes="cc" />
      <path
         style="fill:none;stroke:#ffffff;stroke-width:0.4;stroke-linecap:butt;stroke-linejoin:miter;stroke-miterlimit:4;stroke-dasharray:none;stroke-opacity:1"
         d="m 8.2067589,10.922224 c 0,0 -0.5911779,0.334864 -1.3146482,0.334864"
         id="path14969"
         sodipodi:nodetypes="cc" />
      <path
         style="fill:none;stroke:#ffffff;stroke-width:0.4;stroke-linecap:butt;stroke-linejoin:miter;stroke-miterlimit:4;stroke-dasharray:none;stroke-opacity:1"
         d="m 6.5055624,9.2282963 c 0,0 -0.2370253,-2.8067731 -1.0406808,-4.5135143 C 5.1942602,4.1400572 5.842643,4.0066887 5.9559893,4.2938324 c 0.2630935,0.6665033 0.4076739,0.711516 0.4969544,0.4677218 0.095802,-0.2616021 0.1171614,-0.7483547 0.439167,-0.7483547 0.3220056,0 0.343365,0.4867526 0.439167,0.7483547 C 7.4205582,5.0053484 7.5651386,4.9603357 7.8282321,4.2938324 7.9415784,4.0066887 8.5899612,4.1400572 8.3193398,4.714782 7.5156843,6.4215232 7.278659,9.2282963 7.278659,9.2282963"
         id="path16991"
         sodipodi:nodetypes="cssszsssc" />
    </g>
  </g>
</svg>
