<?xml version="1.0" encoding="UTF-8" standalone="no"?>
<!-- Created with Inkscape (http://www.inkscape.org/) -->

<svg
   width="48"
   height="48"
   viewBox="0 0 12.7 12.7"
   version="1.1"
   id="svg5"
   inkscape:version="1.1 (c68e22c387, 2021-05-23)"
   sodipodi:docname="Toiletries.svg"
   xmlns:inkscape="http://www.inkscape.org/namespaces/inkscape"
   xmlns:sodipodi="http://sodipodi.sourceforge.net/DTD/sodipodi-0.dtd"
   xmlns="http://www.w3.org/2000/svg"
   xmlns:svg="http://www.w3.org/2000/svg">
  <sodipodi:namedview
     id="namedview7"
     pagecolor="#505050"
     bordercolor="#ffffff"
     borderopacity="1"
     inkscape:pageshadow="0"
     inkscape:pageopacity="0"
     inkscape:pagecheckerboard="1"
     inkscape:document-units="mm"
     showgrid="false"
     units="px"
     showguides="true"
     inkscape:guide-bbox="true"
     inkscape:zoom="11.313708"
     inkscape:cx="1.6351845"
     inkscape:cy="22.318059"
     inkscape:window-width="1920"
     inkscape:window-height="1057"
     inkscape:window-x="-8"
     inkscape:window-y="-8"
     inkscape:window-maximized="1"
     inkscape:current-layer="layer1">
    <inkscape:grid
       type="xygrid"
       id="grid87" />
    <sodipodi:guide
       position="6.35,1.2236979"
       orientation="-1,0"
       id="guide89"
       inkscape:label=""
       inkscape:locked="false"
       inkscape:color="rgb(0,0,255)" />
  </sodipodi:namedview>
  <defs
     id="defs2" />
  <g
     inkscape:label="Layer 1"
     inkscape:groupmode="layer"
     id="layer1">
    <g
       id="g7513"
       transform="translate(-0.54211074,0.16382908)">
      <path
         id="rect1165"
         style="fill:none;stroke:#ffffff;stroke-width:0.4"
         d="m 4.7156931,3.9168754 h 4.3060634 c 0.4198532,0 0.7578577,0.3380045 0.7578577,0.7578577 v 6.1927799 c 0,0.419853 -0.3380045,0.757858 -0.7578577,0.757858 H 4.7156931 c -0.4198531,0 -0.7578577,-0.338005 -0.7578577,-0.757858 V 6.3868871 4.6747331 c 0,-0.4198532 0.3380046,-0.7578577 0.7578577,-0.7578577 z"
         sodipodi:nodetypes="ssssssscss" />
      <path
         id="rect1288"
         style="fill:none;stroke:#ffffff;stroke-width:0.4"
         d="M 5.7819495,3.9272349 V 3.3104418 c 0,-0.1295589 0.104302,-0.2338609 0.2338609,-0.2338609 h 1.7526004 c 0.1295589,0 0.2338609,0.104302 0.2338609,0.2338609 v 0.6085249"
         sodipodi:nodetypes="cssssc" />
      <path
         id="rect2043"
         style="fill:none;stroke:#ffffff;stroke-width:0.4"
         d="m 6.1503201,0.74697083 h 1.4835807 c 0.1295589,0 0.2338609,0.10430199 0.2338609,0.23386097 v 0.6236843 c 0,0.129559 -0.104302,0.233861 -0.2338609,0.233861 H 6.1503201 c -0.129559,0 -1.7071842,0 -1.7071842,0 V 1.1835667 L 5.9164591,0.9808318 c 0,0 0.104302,-0.23386097 0.233861,-0.23386097 z"
         sodipodi:nodetypes="ssssssccss" />
      <path
         id="rect3098"
         style="fill:none;stroke:#ffffff;stroke-width:0.4;stroke-miterlimit:4;stroke-dasharray:none"
         d="m 7.4059265,1.7855745 v 1.3565937 m -1.0289877,0 V 1.7855745"
         sodipodi:nodetypes="cccc" />
      <path
         style="fill:none;stroke:#ffffff;stroke-width:0.4;stroke-linecap:butt;stroke-linejoin:miter;stroke-miterlimit:4;stroke-dasharray:none;stroke-opacity:1"
         d="M 3.909707,5.6151463 H 9.7796141"
         id="path4935" />
      <path
         style="fill:none;stroke:#ffffff;stroke-width:0.4;stroke-linecap:butt;stroke-linejoin:miter;stroke-miterlimit:4;stroke-dasharray:none;stroke-opacity:1"
         d="M 3.909707,10.035116 H 9.7796141"
         id="path4937" />
    </g>
  </g>
</svg>
